<?xml version="1.0" encoding="UTF-8" standalone="no"?>
<!-- Created with Inkscape (http://www.inkscape.org/) -->

<svg
   width="406.39999mm"
   height="119.32708mm"
   viewBox="0 0 406.39999 119.32708"
   version="1.1"
   id="svg1"
   xml:space="preserve"
   inkscape:version="1.4.2 (ebf0e940, 2025-05-08)"
   sodipodi:docname="tareando-logo-horizontal.svg"
   xmlns:inkscape="http://www.inkscape.org/namespaces/inkscape"
   xmlns:sodipodi="http://sodipodi.sourceforge.net/DTD/sodipodi-0.dtd"
   xmlns="http://www.w3.org/2000/svg"
   xmlns:svg="http://www.w3.org/2000/svg"><sodipodi:namedview
     id="namedview1"
     pagecolor="#ffffff"
     bordercolor="#000000"
     borderopacity="0.25"
     inkscape:showpageshadow="2"
     inkscape:pageopacity="0.0"
     inkscape:pagecheckerboard="0"
     inkscape:deskcolor="#d1d1d1"
     inkscape:document-units="mm"
     inkscape:zoom="0.41854449"
     inkscape:cx="778.88973"
     inkscape:cy="383.47178"
     inkscape:window-width="1512"
     inkscape:window-height="920"
     inkscape:window-x="0"
     inkscape:window-y="34"
     inkscape:window-maximized="0"
     inkscape:current-layer="g1" /><defs
     id="defs1" /><g
     inkscape:label="Layer 1"
     inkscape:groupmode="layer"
     id="layer1"
     transform="translate(-1578.7688,3418.0198)"><g
       id="g1"
       transform="matrix(0.26458333,0,0,0.26458333,1578.5042,-3418.2844)"><path
         fill="#1874b6"
         opacity="1"
         stroke="none"
         d="m 1537,97.531357 c -2.0013,2.808483 -4.1798,5.020803 -5.9709,7.511773 -5.5453,7.71184 -12.2044,12.17139 -22.4616,12.11847 -62.6598,-0.32325 -125.3221,-0.16158 -187.9836,-0.16158 -1.9731,0 -3.9461,-1e-5 -6.5839,-1e-5 0,2.31186 0,4.24504 0,6.17821 0,62.82816 -0.1897,125.65723 0.1157,188.48392 0.092,18.83362 -7.1242,33.99423 -19.7945,47.24005 -11.8033,12.33936 -26.2127,20.96692 -41.9483,26.52387 -12.3513,4.36178 -25.655,6.25171 -38.6727,8.4143 -7.454,1.23828 -15.1801,1.05557 -22.7867,1.11695 -22.8931,0.18475 -43.5334,-6.82856 -60.8189,-21.7179 -10.3246,-8.89343 -18.1312,-20.09598 -24.244,-32.58383 -7.1408,-14.58786 -10.9312,-30.09717 -13.4889,-45.79813 -1.8245,-11.20016 -1.356,-22.83337 -1.2914,-34.26987 0.1552,-27.49142 5.7446,-53.85087 20.507,-77.27442 9.6153,-15.25664 22.6205,-27.19175 40.1913,-33.91645 13.9137,-5.32509 28.1142,-7.55984 42.5734,-6.1629 16.0204,1.54773 31.0827,6.67041 43.3796,17.94189 5.0385,4.61844 10.3302,8.96068 14.7985,12.81749 0,-17.51263 0,-36.84018 0,-56.58192 -395.11251,0 -790.46343,0 -1186.520024,0 0,1.70022 -7e-6,3.46233 -7e-6,5.22443 -8e-6,88.32606 0.05392,176.6522 -0.07379,264.97807 -0.01462,10.11874 5.898049,17.69046 16.392052,16.49844 C 87.893929,403.47891 93.600655,404 100,404 c 0,15.88684 0,31.47476 0,47.53134 C 74.312439,452 48.624878,452 22.748066,451.70715 22.097851,450.96381 21.708517,450.38419 21.164928,450.08255 15.142982,446.74112 9.54462,442.97464 5.729147,436.97 4.525827,435.07626 2.596867,433.64365 1.000005,432 1,288.33331 1,144.66666 1,1 c 14.42248,0 28.742582,0 43.250504,0.290143 0.806507,0.796245 1.363338,1.415851 2.05302,1.791659 13.233597,7.210977 19.861477,18.279604 19.710934,33.404847 C 65.933197,44.651154 66,52.817131 66,60.982445 66,64.568878 66,68.155304 66,72 c 490.85876,0 980.9294,0 1471,0 0,8.354233 0,16.708466 0,25.531357 M 1231.5179,206.83324 c -7.4845,-6.17032 -16.7705,-8.69701 -25.7627,-8.48623 -14.4202,0.33805 -28.2227,4.48311 -37.4074,16.95627 -6.3667,8.64626 -10.0944,18.4211 -11.5456,29.312 -2.478,18.59581 -3.2793,36.8531 1.9291,55.25719 3.8361,13.55469 9.9423,25.15048 21.6548,33.23285 16.1246,11.12713 29.2218,12.15323 45.3231,2.55206 20.2163,-12.0549 27.1659,-32.00055 29.1045,-53.9032 1.2492,-14.11142 -0.108,-28.23122 -3.6317,-42.17093 -3.2394,-12.81534 -8.386,-24.15555 -19.6641,-32.75001 z"
         id="path2" /><path
         fill="#1874b6"
         opacity="1"
         stroke="none"
         d="m 1537,299.53134 c -0.9952,2.08978 -2.5854,3.6052 -2.895,5.34815 -3.7113,20.89129 -11.9124,39.63324 -25.6571,55.94747 -11.6787,13.86222 -26.281,23.56013 -43.3313,28.86353 -18.211,5.66443 -36.888,6.9675 -56.0407,3.66968 -11.2802,-1.94226 -21.8807,-5.24204 -32.0753,-9.97544 -11.6517,-5.40988 -21.4543,-13.63839 -29.3724,-23.58779 -5.8457,-7.34552 -10.903,-15.5261 -15.0696,-23.94892 -5.4887,-11.09576 -8.5812,-23.03424 -10.812,-35.35647 -2.5812,-14.25742 -1.7782,-28.46186 -1.6002,-42.65903 0.3055,-24.39176 6.7625,-47.2121 20.3324,-67.72061 13.5467,-20.47362 32.0346,-33.92217 55.9094,-40.48506 13.4034,-3.68445 26.9132,-5.62389 40.539,-4.44336 24.4817,2.12106 47.1054,9.32611 65.1906,27.32357 8.1378,8.0983 14.7126,17.0644 20.0592,27.24633 6.0527,11.52676 10.0858,23.51918 11.9901,36.33525 0.2228,1.5001 1.3721,2.86255 2.4624,4.10006 C 1537,259.68756 1537,279.37512 1537,299.53134 m -65.5077,-72.54724 c -0.1816,-0.62831 -0.2856,-1.29236 -0.5561,-1.87981 -8.939,-19.41346 -35.1869,-30.49179 -55.7184,-23.82313 -14.3935,4.67503 -24.1602,14.00393 -29.8413,27.88594 -4.6819,11.44064 -6.123,23.58618 -6.1491,35.66667 -0.026,12.13712 0.9896,24.41519 3.0457,36.37415 1.6417,9.54815 5.8855,18.57104 12.7774,25.83908 7.1261,7.51495 16.0296,11.22125 26.2216,13.15527 8.3284,1.58038 16.1775,0.21478 23.7726,-1.96185 14.8104,-4.24454 23.919,-15.4715 28.5464,-29.29566 3.378,-10.0917 4.2772,-21.15188 5.2171,-31.87365 0.6591,-7.51877 -0.5189,-15.19309 -0.796,-22.80086 -0.3378,-9.27469 -2.2289,-18.17818 -6.5199,-27.28615 z"
         id="path4" /><path
         fill="#1874b6"
         opacity="1"
         stroke="none"
         d="m 652.31812,346.14416 c -10.48786,16.60209 -23.68256,29.88801 -41.20911,38.15802 -14.17944,6.69071 -29.27747,10.85804 -45.0553,10.54654 -12.6535,-0.24978 -25.46106,-0.85394 -37.86975,-3.11465 -13.06445,-2.38028 -25.71823,-6.77805 -36.93872,-14.60098 -15.93131,-11.10733 -27.26764,-25.60929 -34.27329,-43.66657 -5.66311,-14.59686 -9.15655,-29.66574 -9.93347,-45.28634 -0.59305,-11.92423 -1.5072,-23.91602 -0.85571,-35.79975 1.07391,-19.58941 5.66965,-38.70462 15.28555,-55.8123 12.22577,-21.75099 30.23276,-37.10213 54.6156,-44.81882 16.42646,-5.19864 33.06446,-7.62085 50.07557,-6.60547 15.71502,0.93802 31.14691,4.19403 45.18292,11.7092 14.77942,7.91321 26.4079,19.16197 34.72723,33.97777 8.17841,14.56485 13.01306,30.0424 16.24255,46.36203 3.29664,16.6588 4.1178,33.30997 3.49097,50.75263 -52.26123,0 -104.31366,0 -157.94156,0 2.12671,8.08996 3.82019,15.30316 5.93753,22.38973 2.60675,8.72474 7.3852,16.39615 14.456,21.98395 11.07763,8.75443 23.4931,13.72611 38.15686,10.73883 7.32769,-1.49276 14.47772,-3.56521 20.10553,-8.35916 4.16736,-3.54983 7.44165,-8.33047 10.45092,-12.99087 1.89087,-2.92838 3.11664,-4.93643 7.31141,-4.85495 17.82495,0.34628 35.6604,0.14706 53.49206,0.14709 1.63172,0 3.26343,3e-5 6.13898,3e-5 -1.96893,5.85761 -3.47345,10.96018 -5.40558,15.8953 -1.73102,4.42117 -3.93292,8.65792 -6.18719,13.24874 M 524.98083,210.53947 c -8.97888,10.03016 -12.71746,22.15451 -14.31634,35.17485 30.4632,0 60.6889,0 90.90723,0 0.36798,-14.22839 -6.25885,-37.632 -30.60895,-46.62492 -13.88971,-5.1297 -29.27149,-4.34947 -45.98194,11.45007 z"
         id="path6" /><path
         fill="#1874b6"
         opacity="1"
         stroke="none"
         d="m 211.60745,239.6953 c 7.76198,-1.51767 14.74074,-3.57144 21.58699,-7.01525 10.32131,-5.1918 10.83618,-24.5829 0.62612,-31.36288 -7.03698,-4.67291 -14.59105,-7.48511 -22.97556,-7.22862 -7.3685,0.22538 -14.82584,0.62609 -22.04007,2.01118 -8.43501,1.61942 -14.11429,7.5659 -18.7379,14.56221 -0.86879,1.31465 -2.33238,3.17478 -3.53845,3.18758 -18.96584,0.20147 -37.93445,0.14135 -58.01509,0.14135 0.94617,-5.13574 1.4249,-9.802 2.68805,-14.24527 6.74573,-23.729 22.38089,-39.39753 45.34337,-47.29905 11.07025,-3.80933 22.77501,-5.51589 34.59793,-6.69737 16.80049,-1.67893 33.34303,-0.67771 49.73077,2.3953 13.95538,2.61692 27.38701,7.13515 38.36189,16.89878 8.85013,7.87343 14.82184,17.49782 18.89313,28.62892 4.25043,11.62099 5.70276,23.6013 5.8017,35.75908 0.22235,27.32878 -0.34128,54.66878 0.2023,81.98857 0.41983,21.09863 -8.13995,38.13284 -22.57013,52.23755 -16.0188,15.6575 -35.81253,25.1149 -57.77057,29.10763 -15.58267,2.83347 -31.28194,3.0824 -47.24791,0.56476 -18.59598,-2.93237 -35.70695,-8.87484 -50.93996,-19.64261 -10.35982,-7.32306 -18.62404,-17.0693 -22.22271,-29.38903 -3.852084,-13.18726 -4.618258,-26.9361 -1.16896,-40.42685 2.12242,-8.30115 4.29218,-16.87546 8.27344,-24.35108 6.42514,-12.06439 17.09302,-20.06591 30.05813,-24.47163 9.0611,-3.07912 18.2415,-6.01738 27.58427,-8.00473 11.98217,-2.54878 24.1807,-4.08052 36.28608,-6.04993 2.26695,-0.36882 4.5343,-0.73523 7.19314,-1.29861 M 201.5397,340.11267 c 0.91843,-0.35309 1.80905,-0.88208 2.75952,-1.03223 10.19695,-1.61102 18.49231,-7.2117 25.1059,-14.37936 13.69289,-14.83997 15.04712,-33.30191 13.203,-52.04535 -7.32115,2.32687 -14.45062,4.94403 -21.76828,6.83164 -9.60359,2.47726 -19.54672,3.7695 -28.98159,6.72695 -7.21724,2.26227 -14.71799,5.23539 -20.58568,9.82074 -9.53594,7.45185 -10.64987,18.52802 -7.7818,29.6503 1.1271,4.37094 3.16681,8.72971 7.9824,11.23667 9.43708,4.91281 19.08033,6.48077 30.06653,3.19064 z"
         id="path7" /><path
         fill="#1874b6"
         opacity="1"
         stroke="none"
         d="m 694.00134,214 c -6.14386,0 -11.78814,0 -19.02154,0 2.84973,-9.02802 4.97156,-17.4769 8.16766,-25.49774 5.75507,-14.44286 16.58014,-24.57103 30.30353,-31.19416 7.0581,-3.40635 15.00861,-4.95343 22.53802,-7.3957 13.3526,-4.33118 27.25428,-4.93594 41.0091,-4.67146 11.89673,0.22876 24.01367,0.45446 35.55902,4.49388 6.44128,2.25364 13.35791,3.42718 19.43921,6.37068 11.33099,5.48443 20.86169,13.15962 27.38244,24.48224 8.60212,14.93689 11.54706,31.03398 11.59638,47.88974 0.0881,30.16229 0.19995,60.32657 -0.0685,90.48672 -0.0963,10.81574 -4.05481,20.51319 -9.90088,29.75443 -8.86408,14.01214 -21.28192,24.02084 -35.18823,32.09231 -11.1493,6.47126 -23.56763,10.56568 -36.45697,12.07041 -10.96711,1.2803 -22.0727,2.1167 -33.10022,1.96093 -15.86371,-0.22408 -31.35346,-3.67279 -45.53235,-10.78527 -9.09699,-4.56327 -18.09601,-10.094 -25.58185,-16.90296 -9.52283,-8.66177 -16.0896,-19.71798 -16.14032,-33.4122 -0.0348,-9.37878 -0.70374,-18.82397 0.17731,-28.11944 1.03222,-10.89097 4.44049,-21.35511 11.25317,-30.18522 7.35663,-9.53524 16.90076,-16.01654 28.18121,-20.62304 16.3816,-6.68958 33.59949,-9.02196 50.79462,-11.85426 11.27716,-1.85749 22.82568,-2.99007 33.66571,-6.34427 13.26886,-4.10575 19.92767,-14.92658 13.59326,-28.63695 -2.56408,-5.54982 -8.14593,-9.19663 -14.49505,-11.06894 -13.81006,-4.07247 -27.67035,-5.16173 -40.87488,1.23341 -4.98016,2.41197 -9.65302,6.79636 -12.68695,11.44312 -2.21265,3.38888 -4.01544,4.48825 -7.6192,4.45561 -12.16388,-0.11014 -24.32935,-0.0419 -36.99372,-0.0419 m 92.54993,119.11054 c 23.78143,-16.24387 25.15472,-37.24073 22.62445,-60.00098 -7.78284,2.57953 -15.56445,6.11065 -23.72125,7.63839 -12.16144,2.27778 -24.16498,4.6695 -35.78192,9.1103 -9.46674,3.61874 -16.59272,9.15432 -19.24829,19.27047 -4.97272,18.94342 5.09332,30.29523 21.38378,32.69074 12.17676,1.79059 23.55396,-2.23679 34.74323,-8.70892 z"
         id="path8" /><path
         fill="#1874b6"
         opacity="1"
         stroke="none"
         d="m 879.34106,387.88068 c -0.75946,-1.81238 -1.30279,-3.54694 -1.30432,-5.28196 -0.0451,-52.15194 -0.36932,-104.30813 0.29236,-156.45172 0.10962,-8.63711 3.73926,-17.567 7.19147,-25.75021 6.15722,-14.59551 16.70178,-26.18601 29.50336,-35.20438 13.98846,-9.85457 29.65338,-16.65121 46.7193,-19.057 16.1007,-2.2697 32.4967,-2.81165 48.32417,1.15858 20.841,5.22784 39.3124,14.91377 54.2657,31.19518 9.784,10.65298 16.8047,22.52142 20.2882,36.21366 3.1454,12.36335 5.0564,25.10738 0.7001,37.81075 -0.5171,1.5078 -0.3096,3.29008 -0.3102,4.94516 -0.014,41.32169 -0.011,82.6434 -0.011,123.96509 0,1.96957 0,3.93915 0,6.30408 -1.972,0.10342 -3.5778,0.25735 -5.1837,0.26061 -10.6637,0.0218 -21.3273,0.0115 -31.991,0.0115 -13.7115,-9e-5 -24.8228,-11.10626 -24.824,-24.82932 0,-42.15478 0.212,-84.31167 -0.1992,-126.46244 -0.073,-7.53154 -2.2073,-15.18973 -4.3265,-22.51859 -2.857,-9.88113 -11.6051,-14.15604 -20.38423,-15.67586 -8.45404,-1.46353 -17.67554,-0.99479 -26.14514,0.6987 -13.82385,2.76403 -23.86237,11.27263 -27.89923,25.19606 -2.07276,7.14888 -3.81397,14.69606 -3.87158,22.07758 -0.35114,44.98457 -0.17536,89.97328 -0.17542,134.96062 0,1.97033 0,3.94067 0,6.51162 -20.33203,0 -40.26117,0 -60.65894,-0.0777 z"
         id="path9" /><path
         fill="#1874b6"
         opacity="1"
         stroke="none"
         d="m 312,244.09811 c 1.77927,-8.24246 2.82938,-16.26709 5.54425,-23.6822 2.67911,-7.31749 6.85187,-14.12578 10.70895,-20.96596 6.71482,-11.90805 15.93085,-21.68019 26.77539,-29.91257 12.28949,-9.32927 26.09113,-15.19102 40.83649,-19.90794 17.71628,-5.66728 35.53116,-4.1536 53.78244,-4.66118 0,22.108 0,43.82736 0,65.03189 -8.68271,0 -17.26822,-0.49975 -25.77292,0.11638 -12.96438,0.93923 -25.14135,4.31801 -34.31338,14.54743 -5.60425,6.25039 -9.8107,13.15675 -10.57572,21.72325 -0.71624,8.02076 -1.85202,16.048 -1.89587,24.07736 -0.20294,37.15719 -0.0897,74.31613 -0.0897,111.47442 0,1.80155 0,3.60309 0,5.73105 -21.65353,0 -42.90717,0 -64.99997,0 0,-47.62356 0,-95.35534 0,-143.57193 z"
         id="path10" /></g></g></svg>
