<?xml version="1.0" encoding="UTF-8" standalone="no"?>
<!-- Created with Inkscape (http://www.inkscape.org/) -->

<svg
   width="17.947021mm"
   height="39.178841mm"
   viewBox="0 0 17.947022 39.178841"
   version="1.1"
   id="svg1"
   xml:space="preserve"
   inkscape:version="1.4.2 (ebf0e940, 2025-05-08)"
   sodipodi:docname="tareando-logo.svg"
   xmlns:inkscape="http://www.inkscape.org/namespaces/inkscape"
   xmlns:sodipodi="http://sodipodi.sourceforge.net/DTD/sodipodi-0.dtd"
   xmlns="http://www.w3.org/2000/svg"
   xmlns:svg="http://www.w3.org/2000/svg"><sodipodi:namedview
     id="namedview1"
     pagecolor="#ffffff"
     bordercolor="#000000"
     borderopacity="0.25"
     inkscape:showpageshadow="2"
     inkscape:pageopacity="0.0"
     inkscape:pagecheckerboard="0"
     inkscape:deskcolor="#d1d1d1"
     inkscape:document-units="mm"
     inkscape:zoom="2.3834237"
     inkscape:cx="13.845629"
     inkscape:cy="93.772667"
     inkscape:window-width="1512"
     inkscape:window-height="920"
     inkscape:window-x="0"
     inkscape:window-y="34"
     inkscape:window-maximized="0"
     inkscape:current-layer="g1" /><defs
     id="defs1" /><g
     inkscape:label="Layer 1"
     inkscape:groupmode="layer"
     id="layer1"
     transform="translate(-3038.6995,2600.8842)"><g
       id="g1"
       transform="matrix(0.26458333,0,0,0.26458333,3029.7588,-2601.6574)"><path
         fill="#1874b6"
         opacity="1"
         stroke="none"
         d="m 36.468658,151 c -3.913314,-7.56519 -2.373115,-15.58862 -2.401996,-23.40789 -0.145275,-39.327721 -0.06665,-78.656269 -0.06665,-117.984523 0,-1.97271 0,-3.94542 0,-6.564701 5.456181,0 10.581257,-0.327563 15.643032,0.09793 4.495446,0.377889 7.061627,4.865454 7.330437,11.810924 0.134014,3.462752 0.02332,6.934973 0.02332,10.843941 14.659588,0 28.920231,0 43.458979,0 0.48663,5.097956 1.18368,9.787113 1.16683,14.473705 -0.003,0.914837 -2.763012,2.578438 -4.276715,2.608216 -11.327499,0.222831 -22.661361,0.121944 -33.993228,0.122417 -1.828755,7.6e-5 -3.657505,1.2e-5 -6.352517,1.2e-5 0,1.931316 0,3.670116 -3e-6,5.40892 -5.4e-5,25.330063 -1.34e-4,50.660126 -1.42e-4,75.990189 -3e-6,11.8968 6.5e-5,11.8968 11.999989,12.94331 0,4.19145 0,8.45906 0,13.1921 C 58.312439,151 47.624878,151 36.468658,151 Z"
         id="path2" /></g></g></svg>
